<svg width="20" height="18" viewBox="0 0 20 18" fill="none" xmlns="http://www.w3.org/2000/svg">
<path d="M9.11449 3.50614C9.38679 2.68798 10.5724 2.68798 10.8447 3.50614L11.8176 6.42941C11.9394 6.79531 12.2887 7.04304 12.6827 7.04304H15.8312C16.7123 7.04304 17.0787 8.14388 16.3658 8.64953L13.8187 10.4562C13.4999 10.6823 13.3665 11.0832 13.4883 11.4491L14.4612 14.3723C14.7335 15.1905 13.7743 15.8709 13.0614 15.3652L10.5143 13.5585C10.1955 13.3324 9.76375 13.3324 9.44493 13.5585L6.89781 15.3652C6.18492 15.8709 5.22573 15.1905 5.49803 14.3723L6.47095 11.4491C6.59272 11.0832 6.45932 10.6823 6.1405 10.4562L3.59338 8.64953C2.88049 8.14388 3.24687 7.04304 4.12805 7.04304H7.27646C7.67054 7.04304 8.0198 6.79531 8.14157 6.42941L9.11449 3.50614Z" fill="#F7931E"/>
</svg>
