<svg width="17" height="17" viewBox="0 0 17 17" fill="none" xmlns="http://www.w3.org/2000/svg">
<g clip-path="url(#clip0_37_595)">
<rect width="16.3556" height="16.3556" transform="translate(0.333374 0.300537)" fill="black"/>
<path d="M14.2931 0.300537H2.72921C1.4083 0.300537 0.333374 1.37547 0.333374 2.69637V14.2603C0.333374 15.5815 1.4083 16.6561 2.72921 16.6561H14.2931C15.6143 16.6561 16.6889 15.5815 16.6889 14.2603V2.69637C16.6889 1.37547 15.6143 0.300537 14.2931 0.300537ZM15.7306 14.2603C15.7306 15.0528 15.0856 15.6978 14.2931 15.6978H2.72921C1.93667 15.6978 1.29171 15.0528 1.29171 14.2603V2.69637C1.29171 1.90383 1.93667 1.25887 2.72921 1.25887H14.2931C15.0856 1.25887 15.7306 1.90383 15.7306 2.69637V14.2603Z" fill="white"/>
<path d="M13.782 2.24927C13.2536 2.24927 12.8237 2.67924 12.8237 3.2076C12.8237 3.73596 13.2536 4.16593 13.782 4.16593C14.3104 4.16593 14.7403 3.73596 14.7403 3.2076C14.7403 2.67924 14.3104 2.24927 13.782 2.24927Z" fill="white"/>
<path d="M8.51117 4.16577C6.13322 4.16577 4.19867 6.10033 4.19867 8.47827C4.19867 10.8562 6.13322 12.7908 8.51117 12.7908C10.8891 12.7908 12.8237 10.8562 12.8237 8.47827C12.8237 6.10033 10.8891 4.16577 8.51117 4.16577ZM8.51117 11.8324C6.66159 11.8324 5.157 10.3279 5.157 8.47827C5.157 6.62869 6.66159 5.1241 8.51117 5.1241C10.3608 5.1241 11.8653 6.62869 11.8653 8.47827C11.8653 10.3279 10.3608 11.8324 8.51117 11.8324Z" fill="white"/>
</g>
<defs>
<clipPath id="clip0_37_595">
<rect width="16.3556" height="16.3556" fill="white" transform="translate(0.333374 0.300537)"/>
</clipPath>
</defs>
</svg>
