<svg width="207" height="66" viewBox="0 0 207 66" fill="none" xmlns="http://www.w3.org/2000/svg">
<rect width="206.612" height="65.7381" rx="15" fill="#080809"/>
<g clip-path="url(#clip0_37_461)">
<path d="M55.0464 31.9336L35.6528 50.0984C34.7446 49.4947 34.2054 48.4906 34.215 47.4207V16.4466C34.2054 15.3767 34.7446 14.3725 35.6528 13.7688L55.0464 31.9336Z" fill="#2196F3"/>
<path d="M61.8324 25.5887L55.0464 31.9336L35.6528 13.7688C35.7259 13.7137 35.802 13.6624 35.8808 13.6153C36.9057 13.011 38.186 12.9915 39.23 13.5641L61.8324 25.5887Z" fill="#4CAF50"/>
<path d="M70.0564 31.9335C70.0691 33.1413 69.3943 34.257 68.3029 34.8331L61.8325 38.2784L55.0465 31.9335L61.8325 25.5886L68.3029 29.0339C69.3943 29.6101 70.0691 30.7257 70.0564 31.9335Z" fill="#F0BB1F"/>
<path d="M61.8324 38.2785L39.23 50.3031C38.1837 50.8668 36.9083 50.8473 35.8808 50.2519C35.802 50.2048 35.7259 50.1535 35.6528 50.0984L55.0465 31.9336L61.8324 38.2785Z" fill="#F15A2B"/>
</g>
<path d="M92.732 23.215C92.732 22.7171 92.3284 22.3134 91.8304 22.3134H88.3617C87.7808 22.3134 87.3099 22.7844 87.3099 23.3653C87.3099 23.9462 87.7808 24.4171 88.3617 24.4171H88.4867C89.3121 24.4171 89.8199 25.2848 89.0916 25.6732C88.6467 25.9104 88.092 26.0399 87.4335 26.0399C85.3326 26.0399 84.035 24.7326 84.035 22.9445C84.035 21.0964 85.3944 19.7891 87.2172 19.7891C87.9277 19.7891 88.5545 19.9725 89.0426 20.2621C89.5867 20.585 90.2882 20.7816 90.8407 20.4734C91.4467 20.1353 91.6445 19.343 91.1288 18.8788C90.1562 18.0034 88.7858 17.4451 87.2326 17.4451C84.0504 17.4451 81.5634 19.8793 81.5634 22.9295C81.5634 25.9497 84.0041 28.3839 87.4026 28.3839C90.4303 28.3839 92.732 26.4305 92.732 23.215Z" fill="white"/>
<path d="M96.7563 25.8595C96.2417 25.8595 95.8247 25.4425 95.8247 24.9279C95.8247 24.4134 96.2417 23.9963 96.7563 23.9963H98.5446C99.1753 23.9963 99.6866 23.4851 99.6866 22.8544C99.6866 22.2237 99.1753 21.7124 98.5446 21.7124H96.6962C96.2148 21.7124 95.8247 21.3222 95.8247 20.8409C95.8247 20.3596 96.2148 19.9694 96.6962 19.9694H98.9158C99.5548 19.9694 100.073 19.4514 100.073 18.8124C100.073 18.1734 99.5548 17.6554 98.9158 17.6554H96.7129C94.8573 17.6554 93.353 19.1597 93.353 21.0153V24.7751C93.353 26.652 94.8746 28.1735 96.7515 28.1735H98.993C99.632 28.1735 100.15 27.6555 100.15 27.0165C100.15 26.3776 99.632 25.8595 98.993 25.8595H96.7563Z" fill="white"/>
<path d="M108.033 18.8124C108.033 18.1734 107.515 17.6554 106.876 17.6554H101.157C100.518 17.6554 99.9997 18.1734 99.9997 18.8124C99.9997 19.4514 100.518 19.9694 101.157 19.9694H101.39C102.158 19.9694 102.78 20.5919 102.78 21.3597V26.9377C102.78 27.6202 103.334 28.1735 104.016 28.1735C104.699 28.1735 105.252 27.6202 105.252 26.9377V21.3597C105.252 20.5919 105.874 19.9694 106.642 19.9694H106.876C107.515 19.9694 108.033 19.4514 108.033 18.8124Z" fill="white"/>
<path d="M112.667 17.6554C111.985 17.6554 111.432 18.2087 111.432 18.8912V26.9377C111.432 27.6202 111.985 28.1735 112.667 28.1735C113.35 28.1735 113.903 27.6202 113.903 26.9377V18.8912C113.903 18.2087 113.35 17.6554 112.667 17.6554Z" fill="white"/>
<path d="M122.249 18.8124C122.249 18.1734 121.731 17.6554 121.092 17.6554H115.373C114.734 17.6554 114.216 18.1734 114.216 18.8124C114.216 19.4514 114.734 19.9694 115.373 19.9694H115.607C116.375 19.9694 116.997 20.5919 116.997 21.3597V26.9377C116.997 27.6202 117.55 28.1735 118.233 28.1735C118.915 28.1735 119.469 27.6202 119.469 26.9377V21.3597C119.469 20.5919 120.091 19.9694 120.859 19.9694H121.092C121.731 19.9694 122.249 19.4514 122.249 18.8124Z" fill="white"/>
<path d="M130.808 28.3839C133.913 28.3839 136.431 26.0098 136.431 22.9145C136.431 19.8192 133.913 17.4451 130.808 17.4451C127.703 17.4451 125.185 19.8192 125.185 22.9145C125.185 26.0098 127.703 28.3839 130.808 28.3839ZM130.808 26.0399C129.047 26.0399 127.656 24.7927 127.656 22.9145C127.656 21.0362 129.047 19.7891 130.808 19.7891C132.569 19.7891 133.959 21.0362 133.959 22.9145C133.959 24.7927 132.569 26.0399 130.808 26.0399Z" fill="white"/>
<path d="M144.31 17.6554C143.628 17.6554 143.075 18.2087 143.075 18.8912V19.0603C143.075 20.4194 141.337 20.9865 140.535 19.889L139.272 18.1596C139.04 17.8428 138.672 17.6554 138.279 17.6554C137.6 17.6554 137.05 18.2058 137.05 18.8848V26.9377C137.05 27.6202 137.603 28.1735 138.286 28.1735C138.968 28.1735 139.522 27.6202 139.522 26.9377V26.7687C139.522 25.4096 141.259 24.8425 142.061 25.94L143.324 27.6693C143.556 27.9862 143.924 28.1735 144.317 28.1735C144.996 28.1735 145.546 27.6231 145.546 26.9442V18.8912C145.546 18.2087 144.993 17.6554 144.31 17.6554Z" fill="white"/>
<path d="M92.3263 40.1792C92.5504 40.1792 92.732 40.3608 92.732 40.5849C92.732 41.8971 92.2531 43.004 91.2954 43.9056C90.3376 44.7971 89.0761 45.2429 87.5107 45.2429C85.8629 45.2429 84.5036 44.722 83.4325 43.6802C82.3615 42.6284 81.826 41.3412 81.826 39.8186C81.826 38.2959 82.3563 37.0137 83.4171 35.9719C84.4778 34.9201 85.8218 34.3942 87.4489 34.3942C88.4376 34.3942 89.3438 34.6246 90.1677 35.0854C90.8721 35.4745 91.4406 35.9743 91.8733 36.5848C92.0057 36.7717 91.9374 37.027 91.7393 37.1418C91.5383 37.2583 91.2827 37.1846 91.1499 36.994C90.8039 36.4975 90.3426 36.0867 89.766 35.7616C89.0658 35.3609 88.2934 35.1606 87.4489 35.1606C86.0483 35.1606 84.8949 35.6113 83.9886 36.5129C83.0927 37.4044 82.6447 38.5063 82.6447 39.8186C82.6447 41.1308 83.0978 42.2377 84.0041 43.1393C84.9103 44.0308 86.0792 44.4766 87.5107 44.4766C88.7774 44.4766 89.8021 44.141 90.5848 43.4698C90.724 43.3504 90.8523 43.2255 90.9697 43.095C91.831 42.1377 90.7877 40.9305 89.5 40.9305H87.6855C87.4781 40.9305 87.3099 40.7623 87.3099 40.5548C87.3099 40.3474 87.4781 40.1792 87.6855 40.1792H92.3263Z" fill="white"/>
<path d="M103.697 43.6652C102.616 44.717 101.298 45.2429 99.7426 45.2429C98.1875 45.2429 96.8693 44.717 95.788 43.6652C94.7066 42.6034 94.166 41.3212 94.166 39.8186C94.166 38.316 94.7066 37.0388 95.788 35.987C96.8693 34.9251 98.1875 34.3942 99.7426 34.3942C101.298 34.3942 102.616 34.9251 103.697 35.987C104.778 37.0388 105.319 38.316 105.319 39.8186C105.319 41.3212 104.778 42.6034 103.697 43.6652ZM96.3595 43.1243C97.2864 44.0258 98.4141 44.4766 99.7426 44.4766C101.071 44.4766 102.194 44.0258 103.11 43.1243C104.037 42.2127 104.5 41.1108 104.5 39.8186C104.5 38.5263 104.037 37.4295 103.11 36.5279C102.194 35.6163 101.071 35.1606 99.7426 35.1606C98.4141 35.1606 97.2864 35.6163 96.3595 36.5279C95.443 37.4295 94.9847 38.5263 94.9847 39.8186C94.9847 41.1108 95.443 42.2127 96.3595 43.1243Z" fill="white"/>
<path d="M116.309 43.6652C115.227 44.717 113.909 45.2429 112.354 45.2429C110.799 45.2429 109.481 44.717 108.4 43.6652C107.318 42.6034 106.778 41.3212 106.778 39.8186C106.778 38.316 107.318 37.0388 108.4 35.987C109.481 34.9251 110.799 34.3942 112.354 34.3942C113.909 34.3942 115.227 34.9251 116.309 35.987C117.39 37.0388 117.931 38.316 117.931 39.8186C117.931 41.3212 117.39 42.6034 116.309 43.6652ZM108.971 43.1243C109.898 44.0258 111.026 44.4766 112.354 44.4766C113.683 44.4766 114.805 44.0258 115.722 43.1243C116.649 42.2127 117.112 41.1108 117.112 39.8186C117.112 38.5263 116.649 37.4295 115.722 36.5279C114.805 35.6163 113.683 35.1606 112.354 35.1606C111.026 35.1606 109.898 35.6163 108.971 36.5279C108.055 37.4295 107.596 38.5263 107.596 39.8186C107.596 41.1108 108.055 42.2127 108.971 43.1243Z" fill="white"/>
<path d="M129.889 40.1792C130.113 40.1792 130.295 40.3608 130.295 40.5849C130.295 41.8971 129.816 43.004 128.858 43.9056C127.901 44.7971 126.639 45.2429 125.074 45.2429C123.426 45.2429 122.067 44.722 120.996 43.6802C119.925 42.6284 119.389 41.3412 119.389 39.8186C119.389 38.2959 119.919 37.0137 120.98 35.9719C122.041 34.9201 123.385 34.3942 125.012 34.3942C126.001 34.3942 126.907 34.6246 127.731 35.0854C128.435 35.4745 129.004 35.9743 129.436 36.5848C129.569 36.7717 129.5 37.027 129.302 37.1418C129.101 37.2583 128.846 37.1846 128.713 36.994C128.367 36.4975 127.906 36.0867 127.329 35.7616C126.629 35.3609 125.856 35.1606 125.012 35.1606C123.611 35.1606 122.458 35.6113 121.552 36.5129C120.656 37.4044 120.208 38.5063 120.208 39.8186C120.208 41.1308 120.661 42.2377 121.567 43.1393C122.473 44.0308 123.642 44.4766 125.074 44.4766C126.34 44.4766 127.365 44.141 128.148 43.4698C128.287 43.3504 128.415 43.2255 128.533 43.095C129.394 42.1377 128.351 40.9305 127.063 40.9305H125.249C125.041 40.9305 124.873 40.7623 124.873 40.5548C124.873 40.3474 125.041 40.1792 125.249 40.1792H129.889Z" fill="white"/>
<path d="M133.166 41.7775C133.166 43.1852 134.307 44.3263 135.715 44.3263H137.888C138.095 44.3263 138.263 44.4945 138.263 44.702C138.263 44.9094 138.095 45.0776 137.888 45.0776H135.305C133.671 45.0776 132.347 43.7532 132.347 42.1194V34.9689C132.347 34.7428 132.53 34.5595 132.756 34.5595C132.982 34.5595 133.166 34.7428 133.166 34.9689V41.7775Z" fill="white"/>
<path d="M140.784 42.2377C140.784 43.3912 141.719 44.3263 142.872 44.3263H145.815C146.022 44.3263 146.191 44.4945 146.191 44.702C146.191 44.9094 146.022 45.0776 145.815 45.0776H143.078C141.359 45.0776 139.965 43.684 139.965 41.9649V37.6336C139.965 35.9358 141.341 34.5595 143.039 34.5595H145.738C145.945 34.5595 146.113 34.7277 146.113 34.9352C146.113 35.1426 145.945 35.3108 145.738 35.3108H142.827C141.699 35.3108 140.784 36.2257 140.784 37.3543C140.784 38.4829 141.699 39.3978 142.827 39.3978H145.351C145.559 39.3978 145.727 39.566 145.727 39.7735C145.727 39.981 145.559 40.1491 145.351 40.1491H142.872C141.719 40.1491 140.784 41.0842 140.784 42.2377Z" fill="white"/>
<path d="M155.997 34.5595C156.965 34.5595 157.768 34.8701 158.407 35.4911C159.045 36.1122 159.364 36.8885 159.364 37.8201C159.364 38.7517 159.045 39.5281 158.407 40.1491C157.768 40.7602 156.965 41.0657 155.997 41.0657H155.145C154.037 41.0657 153.139 41.9638 153.139 43.0717V44.6683C153.139 44.8943 152.956 45.0776 152.73 45.0776C152.504 45.0776 152.32 44.8943 152.32 44.6683V38.2361C152.32 36.2056 153.966 34.5595 155.997 34.5595ZM155.997 40.3144C156.738 40.3144 157.346 40.079 157.82 39.6082C158.304 39.1374 158.546 38.5414 158.546 37.8201C158.546 37.0889 158.304 36.4878 157.82 36.017C157.346 35.5462 156.738 35.3108 155.997 35.3108H155.641C154.259 35.3108 153.139 36.4309 153.139 37.8126C153.139 39.1943 154.259 40.3144 155.641 40.3144H155.997Z" fill="white"/>
<path d="M162.205 41.7775C162.205 43.1852 163.347 44.3263 164.754 44.3263H166.928C167.135 44.3263 167.303 44.4945 167.303 44.702C167.303 44.9094 167.135 45.0776 166.928 45.0776H164.345C162.711 45.0776 161.387 43.7532 161.387 42.1194V34.9689C161.387 34.7428 161.57 34.5595 161.796 34.5595C162.022 34.5595 162.205 34.7428 162.205 34.9689V41.7775Z" fill="white"/>
<path d="M176.856 45.0776C176.691 45.0776 176.543 44.9766 176.482 44.823L176.057 43.7403C175.74 42.9336 174.962 42.403 174.095 42.403H171.547C170.68 42.403 169.902 42.9336 169.585 43.7403L169.159 44.8233C169.099 44.9767 168.951 45.0776 168.786 45.0776C168.503 45.0776 168.309 44.7913 168.414 44.528L172.236 34.9609C172.333 34.7185 172.567 34.5595 172.828 34.5595C173.09 34.5595 173.325 34.7189 173.421 34.9617L177.229 44.528C177.334 44.7915 177.14 45.0776 176.856 45.0776ZM171.302 39.4097C170.878 40.4862 171.672 41.6517 172.829 41.6517C173.986 41.6517 174.779 40.4862 174.355 39.4097C173.809 38.0242 171.848 38.0242 171.302 39.4097Z" fill="white"/>
<path d="M184.43 34.5595C184.738 34.5595 184.925 34.8996 184.76 35.1596L181.726 39.9268C181.384 40.4646 181.202 41.0887 181.202 41.7261V44.6683C181.202 44.8943 181.019 45.0776 180.793 45.0776C180.567 45.0776 180.384 44.8943 180.384 44.6683V41.7261C180.384 41.0887 180.202 40.4646 179.86 39.9268L176.826 35.1599C176.661 34.8998 176.848 34.5595 177.156 34.5595C177.29 34.5595 177.415 34.6282 177.486 34.7414L178.26 35.966C179.439 37.8298 182.158 37.827 183.333 35.9608L184.1 34.742C184.171 34.6284 184.296 34.5595 184.43 34.5595Z" fill="white"/>
<defs>
<clipPath id="clip0_37_461">
<rect x="32.8262" y="13.1479" width="38.6191" height="37.5646" rx="15" fill="white"/>
</clipPath>
</defs>
</svg>
