<svg width="19" height="16" viewBox="0 0 19 16" fill="none" xmlns="http://www.w3.org/2000/svg">
<path d="M18.4147 2.43396C17.7471 2.72679 17.0358 2.92089 16.2942 3.01513C17.0571 2.55962 17.6394 1.84381 17.9131 0.981031C17.2018 1.40513 16.4165 1.70469 15.5795 1.87186C14.9041 1.15269 13.9414 0.707275 12.8913 0.707275C10.8538 0.707275 9.21354 2.36103 9.21354 4.3884C9.21354 4.68011 9.23822 4.96059 9.29881 5.22762C6.23924 5.0784 3.53198 3.61201 1.71329 1.3782C1.39578 1.92908 1.20954 2.55962 1.20954 3.2384C1.20954 4.51293 1.86588 5.64274 2.84422 6.29684C2.25295 6.28562 1.6729 6.11396 1.18149 5.84357C1.18149 5.85479 1.18149 5.86937 1.18149 5.88396C1.18149 7.67235 2.45715 9.15781 4.12998 9.50001C3.83042 9.58191 3.50393 9.62118 3.1651 9.62118C2.92949 9.62118 2.69163 9.60772 2.46837 9.55835C2.9452 11.0158 4.29827 12.0872 5.90715 12.122C4.65505 13.1015 3.06524 13.6916 1.34417 13.6916C1.04237 13.6916 0.752903 13.6782 0.46344 13.6411C2.09363 14.6924 4.02564 15.2926 6.1091 15.2926C12.8812 15.2926 16.5836 9.68289 16.5836 4.82035C16.5836 4.65767 16.578 4.50059 16.5702 4.34464C17.3006 3.8263 17.9143 3.17893 18.4147 2.43396Z" fill="#080809"/>
</svg>
